<?xml version="1.0" standalone="no"?>
<!DOCTYPE svg PUBLIC "-//W3C//DTD SVG 20010904//EN"
 "http://www.w3.org/TR/2001/REC-SVG-20010904/DTD/svg10.dtd">
<svg version="1.0" xmlns="http://www.w3.org/2000/svg"
 width="2431.000000pt" height="2431.000000pt" viewBox="0 0 2431.000000 2431.000000"
 preserveAspectRatio="xMidYMid meet">
<metadata>
Created by potrace 1.11, written by Peter Selinger 2001-2013
</metadata>
<g transform="translate(0.000000,2431.000000) scale(0.100000,-0.100000)"
fill="#000000" stroke="none">
<path d="M9945 21153 c-27 -1 -156 -7 -285 -13 -1159 -53 -2004 -147 -2368
-265 -79 -25 -128 -48 -178 -84 -342 -240 -1177 -1425 -2202 -3126 -1330
-2208 -2470 -4411 -2707 -5234 -46 -159 -57 -252 -44 -346 62 -448 639 -1690
1577 -3395 286 -521 924 -1630 1005 -1750 73 -106 539 -677 756 -925 410 -469
831 -882 1126 -1104 322 -243 675 -420 1164 -581 975 -321 2359 -508 3606
-487 353 6 495 15 705 43 926 122 1686 608 2214 1414 322 490 466 913 466
1367 0 243 -24 391 -115 709 -141 493 -439 1027 -836 1500 -285 340 -557 634
-993 1073 -409 412 -656 650 -1206 1162 -1153 1072 -2004 1965 -2584 2714
-631 814 -1033 1668 -1201 2549 -182 958 32 1986 630 3026 295 513 808 1109
1408 1637 116 101 140 125 120 121 -4 -1 -30 -3 -58 -5z"/>
<path d="M14165 20134 c-482 -18 -1116 -77 -1397 -130 -920 -171 -1651 -687
-2179 -1535 -251 -406 -403 -798 -465 -1204 -25 -165 -25 -504 0 -663 45 -291
126 -535 272 -823 340 -671 978 -1482 1859 -2364 115 -116 410 -401 655 -635
747 -712 1605 -1573 2101 -2110 274 -296 674 -754 865 -990 455 -562 814
-1218 1027 -1875 112 -345 194 -727 217 -1008 53 -661 -108 -1382 -466 -2087
-261 -515 -550 -927 -953 -1359 -89 -96 -100 -111 -79 -111 13 0 119 9 234 20
760 71 1168 152 1335 265 297 202 997 1168 1886 2605 1365 2206 2703 4735
3003 5675 98 308 97 408 -5 723 -227 703 -1015 2270 -2030 4037 -307 535 -679
1160 -959 1610 l-130 210 -196 196 c-268 270 -507 463 -841 682 -435 285 -711
422 -1119 557 -476 158 -979 249 -1620 295 -197 15 -828 26 -1015 19z"/>
</g>
</svg>
